<svg xmlns="http://www.w3.org/2000/svg" width="27" height="22" viewBox="0 0 27 22">
  <path fill="#FFFFFF" fill-rule="evenodd" d="M2.96484375,0.78515625 L23.9414062,0.78515625 C24.6132846,0.78515625 25.1406231,0.999997852 25.5234375,1.4296875 C25.9062519,1.85937715 26.0976562,2.44140258 26.0976562,3.17578125 C26.0976562,3.925785 25.9062519,4.51562285 25.5234375,4.9453125 C25.1406231,5.37500215 24.6132846,5.58984375 23.9414062,5.58984375 L2.96484375,5.58984375 C2.29296539,5.58984375 1.75781449,5.37500215 1.359375,4.9453125 C0.960935508,4.51562285 0.76171875,3.925785 0.76171875,3.17578125 C0.76171875,2.44140258 0.960935508,1.85937715 1.359375,1.4296875 C1.75781449,0.999997852 2.29296539,0.78515625 2.96484375,0.78515625 Z M2.96484375,8.66015625 L23.9414062,8.66015625 C24.5976595,8.66015625 25.1210918,8.87499785 25.5117188,9.3046875 C25.9023457,9.73437715 26.0976562,10.3164026 26.0976562,11.0507812 C26.0976562,11.800785 25.9062519,12.3906229 25.5234375,12.8203125 C25.1406231,13.2500021 24.6132846,13.4648438 23.9414062,13.4648438 L2.96484375,13.4648438 C2.29296539,13.4648438 1.75781449,13.2460959 1.359375,12.8085938 C0.960935508,12.3710916 0.76171875,11.7851599 0.76171875,11.0507812 C0.76171875,10.3320277 0.960935508,9.75390844 1.359375,9.31640625 C1.75781449,8.87890406 2.29296539,8.66015625 2.96484375,8.66015625 Z M2.96484375,16.5351562 L23.9414062,16.5351562 C24.5976595,16.5351562 25.1210918,16.7499979 25.5117188,17.1796875 C25.9023457,17.6093771 26.0976562,18.1914026 26.0976562,18.9257812 C26.0976562,19.675785 25.9062519,20.2656229 25.5234375,20.6953125 C25.1406231,21.1250021 24.6132846,21.3398438 23.9414062,21.3398438 L2.96484375,21.3398438 C2.29296539,21.3398438 1.75781449,21.1210959 1.359375,20.6835938 C0.960935508,20.2460916 0.76171875,19.6601599 0.76171875,18.9257812 C0.76171875,18.2070277 0.960935508,17.6289084 1.359375,17.1914062 C1.75781449,16.7539041 2.29296539,16.5351562 2.96484375,16.5351562 Z"/>
</svg>
